<?xml version="1.0" encoding="utf-8"?>
<!-- Generator: Adobe Illustrator 15.0.0, SVG Export Plug-In . SVG Version: 6.00 Build 0)  -->
<!DOCTYPE svg PUBLIC "-//W3C//DTD SVG 1.1//EN" "http://www.w3.org/Graphics/SVG/1.1/DTD/svg11.dtd" [
	<!ENTITY ns_extend "http://ns.adobe.com/Extensibility/1.0/">
	<!ENTITY ns_ai "http://ns.adobe.com/AdobeIllustrator/10.0/">
	<!ENTITY ns_graphs "http://ns.adobe.com/Graphs/1.0/">
	<!ENTITY ns_vars "http://ns.adobe.com/Variables/1.0/">
	<!ENTITY ns_imrep "http://ns.adobe.com/ImageReplacement/1.0/">
	<!ENTITY ns_sfw "http://ns.adobe.com/SaveForWeb/1.0/">
	<!ENTITY ns_custom "http://ns.adobe.com/GenericCustomNamespace/1.0/">
	<!ENTITY ns_adobe_xpath "http://ns.adobe.com/XPath/1.0/">
]>
<svg version="1.1" id="Слой_1" xmlns:x="&ns_extend;" xmlns:i="&ns_ai;" xmlns:graph="&ns_graphs;"
	 xmlns="http://www.w3.org/2000/svg" xmlns:xlink="http://www.w3.org/1999/xlink" x="0px" y="0px" width="160px" height="72px"
	 viewBox="0 0 160 72" enable-background="new 0 0 160 72" xml:space="preserve">
<metadata><?xpacket begin="﻿" id="W5M0MpCehiHzreSzNTczkc9d"?>
<x:xmpmeta xmlns:x="adobe:ns:meta/" x:xmptk="Adobe XMP Core 5.0-c060 61.134777, 2010/02/12-17:32:00        ">
   <rdf:RDF xmlns:rdf="http://www.w3.org/1999/02/22-rdf-syntax-ns#">
      <rdf:Description rdf:about=""
            xmlns:dc="http://purl.org/dc/elements/1.1/">
         <dc:format>image/svg+xml</dc:format>
         <dc:title>
            <rdf:Alt>
               <rdf:li xml:lang="x-default">logo-rojo</rdf:li>
            </rdf:Alt>
         </dc:title>
      </rdf:Description>
      <rdf:Description rdf:about=""
            xmlns:xmp="http://ns.adobe.com/xap/1.0/"
            xmlns:xmpGImg="http://ns.adobe.com/xap/1.0/g/img/">
         <xmp:MetadataDate>2017-07-07T14:34:29-04:00</xmp:MetadataDate>
         <xmp:ModifyDate>2017-07-07T14:34:29-04:00</xmp:ModifyDate>
         <xmp:CreateDate>2017-07-07T14:34:29-04:00</xmp:CreateDate>
         <xmp:CreatorTool>Adobe Illustrator CS5</xmp:CreatorTool>
         <xmp:Thumbnails>
            <rdf:Alt>
               <rdf:li rdf:parseType="Resource">
                  <xmpGImg:width>256</xmpGImg:width>
                  <xmpGImg:height>52</xmpGImg:height>
                  <xmpGImg:format>JPEG</xmpGImg:format>
                  <xmpGImg:image>/9j/4AAQSkZJRgABAgEASABIAAD/7QAsUGhvdG9zaG9wIDMuMAA4QklNA+0AAAAAABAASAAAAAEA&#xA;AQBIAAAAAQAB/+4ADkFkb2JlAGTAAAAAAf/bAIQABgQEBAUEBgUFBgkGBQYJCwgGBggLDAoKCwoK&#xA;DBAMDAwMDAwQDA4PEA8ODBMTFBQTExwbGxscHx8fHx8fHx8fHwEHBwcNDA0YEBAYGhURFRofHx8f&#xA;Hx8fHx8fHx8fHx8fHx8fHx8fHx8fHx8fHx8fHx8fHx8fHx8fHx8fHx8fHx8f/8AAEQgANAEAAwER&#xA;AAIRAQMRAf/EAaIAAAAHAQEBAQEAAAAAAAAAAAQFAwIGAQAHCAkKCwEAAgIDAQEBAQEAAAAAAAAA&#xA;AQACAwQFBgcICQoLEAACAQMDAgQCBgcDBAIGAnMBAgMRBAAFIRIxQVEGE2EicYEUMpGhBxWxQiPB&#xA;UtHhMxZi8CRygvElQzRTkqKyY3PCNUQnk6OzNhdUZHTD0uIIJoMJChgZhJRFRqS0VtNVKBry4/PE&#xA;1OT0ZXWFlaW1xdXl9WZ2hpamtsbW5vY3R1dnd4eXp7fH1+f3OEhYaHiImKi4yNjo+Ck5SVlpeYmZ&#xA;qbnJ2en5KjpKWmp6ipqqusra6voRAAICAQIDBQUEBQYECAMDbQEAAhEDBCESMUEFURNhIgZxgZEy&#xA;obHwFMHR4SNCFVJicvEzJDRDghaSUyWiY7LCB3PSNeJEgxdUkwgJChgZJjZFGidkdFU38qOzwygp&#xA;0+PzhJSktMTU5PRldYWVpbXF1eX1RlZmdoaWprbG1ub2R1dnd4eXp7fH1+f3OEhYaHiImKi4yNjo&#xA;+DlJWWl5iZmpucnZ6fkqOkpaanqKmqq6ytrq+v/aAAwDAQACEQMRAD8A63+X/wCX/lHVvKNhqGoW&#xA;HrXc3q+rL6syV4TOi/Cjqv2VHbMDT6eEoAkbvT9q9q6jFqJQhKoiug7h5Mi/5VT5B/6tf/Je5/6q&#xA;Zd+Ux933uu/lzV/z/wDYx/U7/lVPkH/q1/8AJe5/6qY/lMfd96/y5q/5/wDsY/qd/wAqp8g/9Wv/&#xA;AJL3P/VTH8pj7vvX+XNX/P8A9jH9Tv8AlVPkH/q1/wDJe5/6qY/lMfd96/y5q/5/+xj+p3/KqfIP&#xA;/Vr/AOS9z/1Ux/KY+771/lzV/wA//Yx/Ulnk/R9O0f8AMHXbDTofQtI7W3KR8mehYBju5Zup8chh&#xA;gI5ZAcqDk9oaiebR45zNy4pM/wAzHQPmn85W81+XPPtlp2keZdXjs9WjjmSE39x+7kkmaNlX49l2&#xA;BHhir6I0TSU0nTYrFLq5vBFX/Sb2Z7idixr8Uj7nFUdirwz/AJyH/MPV9G1HR9K0W5lt5bV0v76S&#xA;JmUE1It4pCpFQ3B2KHrscVey6Hq9rrOjWOrWv+89/BHcRjuBIoah9xWhxV5j5Y/LrWprXXNY1jW9&#xA;bsHub6+uLPTbe8mtI0i9VyruimvJz8XbamKsK/I1Ne87XOsw6z5m1wLZxwtA1vqNxGQZGcMTVmB+&#xA;xir1D8vPJ2r6ZovmXQNWu711n1OaS01b13S5lt5IYQkizA8ww4EE+NcVeT+RT5l1X82dQ8p6l5o1&#xA;t9PsZr2IGPUbhHb6rIUWrcu9N8Ver6J5O8xaF+YMM9vrWp6t5cmspluoNQvWuPq9xyUxng7DkHAP&#xA;H4ajffFWF/8AORja7oD2Gt6Pr+qWTajK0NxZQ3k0duvpxrxaKNGUJWh5eJ3xVR86aX5q8t/lzpPn&#xA;DSPNesNe+jaSX8N3dvcQv9ZUHkqScgKO4FNxTFXp/wCVXm2881+R9P1i+QJev6kVyUBVWeJynNR/&#xA;lAAmmwNRirxXzofMOkfm/pvlW08z64NJvrixjkDajcGRUupFSQK5b3NKjFXpmr/l/wCYNN1rQb/y&#xA;/wCYdYu0j1C3/SemXuoySxPZhh60gEjry4DcrvWvTsVUH/zkB+YGteVtK0uy0eY2dzq8kokvlAZ4&#xA;oYAnMID0ZvVG/am2++Kt69+X2ow6BZ635L17Vb3VLcwz/FfyzR6hEzL6leb+nVh8QpRe3uFXq2Kq&#xA;V3bC5tpIDJJEJBT1IWKSDvVWG4xV5v5YXUtR8z3mm3OrXxtrUTFaXMis3pyBBU1/yq4qirDWda0f&#xA;zoNEuLyS+s3kWMGY83AkUMjcjvUV3xVH/mT9bsrKHUbO+ureV5lgeOKZ0jIKM1eII3+HFU28lQy/&#xA;oO3u5rq4uZ7tA8hnlaQAgnZAx+HriqV3OjXY83W9kuqX4sZoHuHj+syVDI3HiDWvHcYqrflT/wAo&#xA;Dpf/AD3/AOomTMbSf3Y/HV23bn+Nz/zf9yGWZkupY55r896H5cThcP69+wrFYxbyGvTl/ID4n6Ac&#xA;ozaiMOfN2Oh7Ly6g2Nofzjy/awXzDY+atc0t9Y8zapH5f05aPZacQxJI3XkqkMX8Orf5IzEyRnMc&#xA;Uzwjud9pMuDBk8PBA5Z/xS/HT7PMofQr/wDNjSdIOqEfWNJjXn6eoOgb0gPtDmyyqKdPi+jI45Zo&#xA;xvp5s9Vi7Py5PD5ZD/N7/gKZZ5P/ADTstfuVspbGa2uyKsyfvYQOlWcUKCviPpzJw6sTNVu6ntDs&#xA;OWnjxCQMfkf2q+j/APkz/MH/ADCWv/EVww/vpe4MNR/iOL+tJmWZTpnzt/zkJ/5M/wArf8Yrf/qL&#xA;bFX0SzKqlmICgVJOwAGKrJ54beCSeZxHDCrSSyN0VVFWJ+QxV82axfjzR5O8030ug6zcanr16t/p&#xA;9/FYSyWqW1n8FsnrDagh5hmG3xYqzT/nGbzT+kPKNzoUz1uNHmrCD1+r3BLrTx4yB/ltir1rUf8A&#xA;jn3X/GJ/+InFXz9/zil/x0PMf/GK1/4lLir6JxV8ueUrLWrz8+/MMGjakuk3pvdUIvGt1ugFE78l&#xA;9N2Qb+NcVewflr5W836L5t833fmO5/SJ1FrE2mqhUjWdYklBAiUn0/TDqvH7q4qxH/nKn/lH9D/5&#xA;i5f+TeKsK/MDzL5w/RPlTy75rhhtPKk8FncCfTuZknt0RVNXk5D1I0apTjTlQ77Yq+kvK+laJpXl&#xA;+xsdDVV0mOJWtCjFgySfHz5H7XPlyr74q+e/zbiupvz+0iKznFrdyTaYlvdFBKIpGlUJIYyQH4tv&#xA;xJ3xV6Xpnk7z9a/mhpmsa1qo13TYrC4hW6SCO0WB2I+AwozV57Hn36HoMVTn8zPIegeebCPRrq7W&#xA;11i3V7rT5FKtKikhHYxEgtETxDe9N8VeDLe/mf8AkxrUNtcP6+jzMSkHIyWVwgNX9Ou8Um+9AD41&#xA;HVV9R6TqNvqel2epW9fq99BHcw168JUDrWns2KorFXk+hSavH5u1WTSoo57pPrLGOXlQr6orTjTe&#xA;tO+Kpl5Be01XX7zUdRJk1lD6kSmgQLTgSF8U6ewxVNfzTBPl6AgdLtCf+RcgxVN/JjA+V9OINR6V&#xA;PpBIOKqc5Ded7VRuyafKzDwDSqAfvGKpX+Wd3bWn5c6dc3UqQQRC4aSWQhVUfWZOpOYulIGIE/jd&#xA;3PbOOU9ZKMRZPD/uQld1551jzTqL6L5OHoxKK3WryinBK0JjU7j2JFfYdcrOeWQ8OP5uVDszHpYe&#xA;Lqdz0gP0sf1DyvoTzfovy+11rXmpXElxrCzFIoHrUvI9SvXoBU1/artlMsUeUblPvdhi1uUDxM3D&#xA;jwdIVufcPwPJR8zW2reVNV0/VNY1K38wXyj4bG69VjH35oK0ABGzGm/7O2DKJYyDI8RZ6KePVY5Y&#xA;8cJYo/zhW/kfx8Uv8wa/rOvpFeeZLg2GlUD2um24pJN4MkbE7H/fkm38temQyZJT3nsO5yNJpcen&#xA;JjgHFk6yPIe8/wC9G/fXNK9M1ua41rS7K2jWy01by3ZbSImjESrR5X+1I/u3TsBlcclyAGwtys2m&#xA;EcU5SPFPhlufd07h+Db17R//ACZ/mD/mEtf+Irmyh/fS9weQ1H+I4v60mZZlOmeD/mV+Xv5oeb/N&#xA;tnrlvptpZx6dHHFbQtdrJyMcrS82PBPtFuntirKfOUf5weZPL82iW2i2WkpfKIb28F/67ek20gRf&#xA;TipyGxqTtt74qmP5laR51vPK7eWPKdlAbS5tltp76a4EbRxD4GiSPjvzQULV6Hpiqe+UbfWrDyda&#xA;Wd5psNtqFhbC3isYpw8T+igWP95xHHnTfY098VeOeRfy0/Nnyd5sl1zT9Osmtrj1I59N+thUMMjc&#xA;givxNChA4tTFXtHmybzMuivHoOnw3moXCtEVnnEKRc0I514vz4tT4dq+OKvJ/wAofy8/MvyLrFxL&#xA;PptpdWOoiKK6pdqjRqjk+ovwNy4hj8O1fHFXtGr3Gp2+nTTaXaJfX6gehayS+grksAayFX40Wp6e&#xA;2KvCfLP5cfm5ofn6484DTrC5nu5riW5tWugqkXTl3CsF+EiuxoflirONQ0z8yvMvmfy+2q6ba6R5&#xA;e0u8W/uYorv6zLJNCpMVSEi2D9Bx717Yqk/51+SPzA87XFpY6ZYW0emac7yR3Ml0OczSKoqY+I4c&#xA;aEdTXFUdqf5b675u/LS08v8AmC3t9N13R1ij0y8jl9aNzDEI+b8UUoJBsyiu9G9sVV/yj0z8yvLe&#xA;myeXfMOnxz6faJI2mahHcxtQggi3Zft8WJJVuPw9D2xVh3m78ufzV138wLfzhBpllaS2cltLbWrX&#xA;YlFbVgy824pXkw3oMVZf50j/ADf8y6DNolrotlo8d8BDe3f1/wCsN6LbOqKIoqchseu22Kovz75R&#xA;83DV/L3mDyYYGvdDjltprK5coLi3cIBHWnH9lq1I7EdMVSnzr5P88/mO2l6dq2mw+XdIs5frF7Mb&#xA;lLud2KleMIjUKNiftfPtQqsh/Mvy75tn8kW+k+Rrh7G8tZIEURTGCQ2sSFPTSWqld+B67gYqnHlS&#xA;280ad5L0+DVmGo+YIIQtyWl+2/Lo0pDVKqaFu5GKpDoPl3zVpmvzaq1rDILn1BLEJuNBI4c0ND0I&#xA;xVV1nybrNrr41ry+yc2f1Ht2bjRm+2N6Aq3ffFWR6ppTa7oJtL2M2k8oDcQQ/pyKdiCNmH8MVY7o&#xA;Wn+fNChaxhtre8tAxaJmkoFJO9KlTTvSmKsg0PR72C5udT1OVJdSuwqMIgRHFGnSNK79euKvLLrW&#xA;bjTfyt8uCOKG4hnmuVnt7iNZY3CzSEddwQe6kHNUZmOGPxe2hp45NflskECNEGjyH43Ywkvlm8Ja&#xA;NptCu2BBKlri1IbYjb9/GP8Ag8x7gf6J+z9f3uzMc8OdZY/KX/En/Ysj0PVvPeh6M2m6LbW11aTu&#xA;THqlsFlClhVi8gYKpAH+7gCAPDL8c8kI1ECu/wDH6XXanBpc+TjymUZD+E7fZ1/zebHLq/s7Gd7g&#xA;yjWNbduUt7LWS3jf/ID/AN8/+U3w+AbY5QZAb/VL8fN2MMUpiq8PF3DYn3/zR5DfzHJJp57u9umm&#xA;nd7i6nb4nYl3Zjt8zlRJJc2MYwjQ2iHpvkL8pr36xb6trha1ELrNBZD+9JQhlMh/ZFR9nr8sz9Po&#xA;zfFJ5jtTt2NHHi9V7GXT4d7LdH/8mf5g/wCYS1/4iuZMP76XuDqdR/iOL+tJmWZTpnntx5h8yaZ+&#xA;YWn6RLqMl9bX73LS2klitrAsSQPNELa6Y/vpVIVWXka7k8cVcv5y6QEnWewkiuYmtgsP1mykRkun&#xA;aNGaaOZooyjJ8auwpt1GKq0H5tWd5awvpmj3l/eSLdzTWcD2zGOCxlEU0ol9X0pQXYBPTZuXbFUR&#xA;qH5oWFvElza6dc3tmdNtNXluEMKenb3rukXJZHVi37vcAHFUf5y882XldrNbm3adrxZ3Q+tb26gW&#xA;6qzVe4kiSp5bCuKpLN+c/lqLT5bx7a6Uqtk0NsVX1pfr8PrjivLb0owWcnYU+WKpZZfmVftr97e6&#xA;r9ctdEhm1C20i3ht4BbXR09JGkMlw7tKZWELlVCou1Ktviqcr+alusLfWdEv7a8lS0l02xf6u0l2&#xA;l9IYYeBSVkQ8weQkYUG+Kq1t+ZDXV1Dp9vod4+rtJdw3NgZLZWheyEDSVkaQRsGW7jKlTuMVQNt+&#xA;cVhcxG6g0a+k0+CKzn1C8Bt+FvFfoGiZlMod6cviCKaCpxVc/wCc/lqLULu3nhmjt7YXoiuA8DtK&#xA;2nKzTr6CyGaOojb0zIoDU7Yqjn8/anGlpDL5X1BNWv5JBaaaZLUM8UUYleUyGX01CqwFGIPLbFWl&#xA;/MmBtSW3OkXq2S3dvpl3qDGDhBf3SxlIHQSM54mZVdlBUN49cVQeh/m/pWrxTPb6fOGj086oiCez&#xA;YtErqhVyJ6QvVxtLx7+GKq+lfm15dvJooLoDT5muZLSdpZ7Z4I3jgFwrevFI8bK6tRaGvKoIGKqc&#xA;X5xeVWtb64kJgFnYtqEaSyQq1wqyTR+nBV/jcm2NPmMVRbfmn5WXTNWujOn1vSPrBm0v1YfrbrbC&#xA;rMkXPlxIGxOKovTfPNtf+Zp/LiWF1HqNm0pvi6qIookCmGXny+JbjmPTC77GoFMVQ9/+ZWh2Oorp&#xA;0sczXj6tFo0cSBSS8iwMZzvtEn1tFJO9TSmKoRfzUs1XWxdaXcW0+iRRzzQerazMyyyGJUYwyyLH&#xA;LyX7DkGmKt3/AOaNrYRzx3mmT2+ow3qacLOWa1QGSS2F3yadpRCqCJupatdqYqh5/wA4dJGmwaha&#xA;addXkEun3GqTBGgUxQ2kwt5g3KQBmWQ0+AmvbFVeT83PLyTQ25gna6m1GTTVgUKWHpcQ07Uaixcp&#xA;FUE7knFUH5G89nVPMMVjJqc+oDUrD9I2tu1tDCtpGWWQRTyxs3qTcJ0+zQBaEirVKrFb/R9V1L8q&#xA;vLpsLWS6+rzXTzLEpdlUzSCvEbn6M1MoGWGNDve3xajHj1+XjIjYjz9weeMjIxVwVZTRlIoQffMJ&#xA;6EG070IkaF5koaf6JB/1GwZdj+mXu/SHC1X97i/rH/cSQ/l7yzrGv3gtdNgMjD+8lbaOMHu7dv1n&#xA;tkceKUzQbNXrcenjxTNfefc9w8mflxo/lxVuHAvNUp8V242SvURL+z8+v6s22DTRhvzLw/aPbGTU&#xA;bfTDu/WybUNRsdOtJLy+nS3tohV5XNAP6k9gMvlIRFl1mLDLJIRiLkWIeTZLjVfNWr+ZIraSHSr2&#xA;KGGzlmAVpfSABdV68TTY5jYLlMzrYu37RAxYIYCQckSSa6WzfMt0jELj8uLa+u/V1fWNR1O2iE4t&#xA;LOeSJUhNzG8UjBoo43dgkjBCzHjiqWr+TmnpxaPWr71olt0tZXS0b0ltJDJEFQQLGeu/JTXviqIT&#xA;8pdLgijNnquoWd+frS3eoQNAss8d66vOjL6PpICyArwRePXriqV3X5Sas9jrVvaa/Nax3sEVlYWa&#xA;pA8AtbKLjZRStJC8o4OWLcDvXxxVlPmTycdebTppNRmsruwSVDLBHbyBxcKqygrcRypvw2PHFUnt&#xA;vyZ8q20d6sMlxzu7K305JXZWaGG3VR+7+GnKT015k/RQYq3q/wCWFo8GoS2t3dTkpfz6ZpMjxC1h&#xA;vL+KVJHX4Ff4jM1AzlVqT8lXWX5XQy6ZH+ldVv59UENmlveFoFkszZP60aw+nEqHjITUurchiqaa&#xA;J5CsNK1GDUheXN3fxm8kubi4KFp5b70PUdwioq8VtEVAoAAxVjGj/lJLBqOpWU9/dxeXTFpsEUEb&#xA;W/8ApiWUQBE9Y2kSjoK8CtRXFU6X8qtBE2ohrm5ew1FboPYEQcEN9yMzJL6Xr9WJWsh41OKq0v5f&#xA;Syx2ryeY9UbUbF5GtNSLW3qpHLGIni4+h6bKyqDUrXl8VcVcv5b6eNTW7OpXzW5urfUbmwLxejPf&#xA;WqosdxIRGH5H0lZ1VgrMAaYqlVr+S2hLYGzvNRvLxUs10+0dltojDAksc609OFfUYSQqay8vDFUf&#xA;pn5WaPaasNTubufUrgzG5lW7S3KO5t/q26RxxoAF3AC7YqpwflH5citNRtmd5V1CxfTg0iREwo8k&#xA;8nOL4fhcG5NPkMVQuofkxo2opdQ3mpXclpPLcXENsFt1WKa5jaN5A6xeq1Fc8VZ+Ptiqdab5CstP&#xA;8wt5givbl9Unkna/lcqRcRzcRHC68aBIOC+nxoRv4nFVOX8ttDk1XUNV9SUX+oX1nfyTfCShsXik&#xA;SJKg0RmhBfufoGKpNq/5STXT+pBrt3691NANRu5lthK1pbF5kjURwIjubkxszSAkgUrTYqqo/Ky4&#xA;ubvUJtU1qe6lmure/sb707YTJcRWxtZPUi9D6uyNFxXiUPTx3xVMH/LLSpLK+tZr67m+uacdJWR/&#xA;RBigZi8jIsccac5HPJiR4YqpW35UeXrdryWOWb61fahHqM9wSpesJLJCvw0EYJJ8d+uKoryv+W+h&#xA;eW10kac0o/RUN1CC5UmZrwwtJJKQBVh9XULToNuwxVr8qf8AlAdL/wCe/wD1EyZjaT+7H46u27c/&#xA;xuf+b/uQm2teVPLutKRqVjFM5FBNTjKPlItG/HLZ4Yy5hxNNrs2H6JEeXT5MZtfyg0S2N/FHdz/U&#xA;b+JIpIDxLrwmSb4ZKdD6dPs/TmONHEXvsXZz7fyy4SYjigSb+BHL497MtM0rTtLs0s9Pt0t7aP7K&#xA;IKb+JPUk+JzKhARFB02bPPLLimbKV+ZfOGnaJwtgrXurXG1ppsHxSuT0JpXivuforleXMIbcz3OV&#xA;o+z55/V9OMc5HkEqsPKGpaxdx6t5wdZ5EPK00ZDW2g/196SP49vnlccJkeKfy6OVl7Qhhicem2HW&#xA;f8R/UGZgAAACgGwAzKdM7FXYq7FXYq7FXYq7FXYq7FXYq7FXYq7FXYq7FXYq7FXYq7FXYq7FXYq7&#xA;FXYq7FXjGiev+jIf0N/if9G/F6H1f0vS+2eXHjt9utffNXDl6eOns9TXGfE/L8fW7v8AFI7/AHP/&#xA;APf2/wDJPJ+r/bGn9z/0Dfa7/c//AN/b/wAk8fV/ti/uf+gb7Xf7n/8Av7f+SePq/wBsX9z/ANA3&#xA;2si/Lz/Cvq3X1b1/8Q8j+kf0l/vd171/Z/1fpy7TcG9fV1vm67tbx6jxV4P8PB9H49/wZvmW6N2K&#xA;uxV2KuxV2KuxV2KuxV2KuxV2KuxV2KuxV2KuxV2KuxV2KuxV2KuxV2KuxV2KuxV//9k=</xmpGImg:image>
               </rdf:li>
            </rdf:Alt>
         </xmp:Thumbnails>
      </rdf:Description>
      <rdf:Description rdf:about=""
            xmlns:xmpMM="http://ns.adobe.com/xap/1.0/mm/"
            xmlns:stRef="http://ns.adobe.com/xap/1.0/sType/ResourceRef#"
            xmlns:stEvt="http://ns.adobe.com/xap/1.0/sType/ResourceEvent#">
         <xmpMM:InstanceID>xmp.iid:F87F117407206811808393F8138F543B</xmpMM:InstanceID>
         <xmpMM:DocumentID>xmp.did:F87F117407206811808393F8138F543B</xmpMM:DocumentID>
         <xmpMM:OriginalDocumentID>uuid:5B20892493BFDB11914A8590D31508C8</xmpMM:OriginalDocumentID>
         <xmpMM:RenditionClass>proof:pdf</xmpMM:RenditionClass>
         <xmpMM:DerivedFrom rdf:parseType="Resource">
            <stRef:instanceID>xmp.iid:F77F117407206811808393F8138F543B</stRef:instanceID>
            <stRef:documentID>xmp.did:F77F117407206811808393F8138F543B</stRef:documentID>
            <stRef:originalDocumentID>uuid:5B20892493BFDB11914A8590D31508C8</stRef:originalDocumentID>
            <stRef:renditionClass>proof:pdf</stRef:renditionClass>
         </xmpMM:DerivedFrom>
         <xmpMM:History>
            <rdf:Seq>
               <rdf:li rdf:parseType="Resource">
                  <stEvt:action>saved</stEvt:action>
                  <stEvt:instanceID>xmp.iid:F77F1174072068118C14B0EF19E748F4</stEvt:instanceID>
                  <stEvt:when>2017-07-05T14:21:32-04:00</stEvt:when>
                  <stEvt:softwareAgent>Adobe Illustrator CS5</stEvt:softwareAgent>
                  <stEvt:changed>/</stEvt:changed>
               </rdf:li>
               <rdf:li rdf:parseType="Resource">
                  <stEvt:action>saved</stEvt:action>
                  <stEvt:instanceID>xmp.iid:F77F117407206811808393F8138F543B</stEvt:instanceID>
                  <stEvt:when>2017-07-07T14:30:44-04:00</stEvt:when>
                  <stEvt:softwareAgent>Adobe Illustrator CS5</stEvt:softwareAgent>
                  <stEvt:changed>/</stEvt:changed>
               </rdf:li>
               <rdf:li rdf:parseType="Resource">
                  <stEvt:action>saved</stEvt:action>
                  <stEvt:instanceID>xmp.iid:F87F117407206811808393F8138F543B</stEvt:instanceID>
                  <stEvt:when>2017-07-07T14:34:29-04:00</stEvt:when>
                  <stEvt:softwareAgent>Adobe Illustrator CS5</stEvt:softwareAgent>
                  <stEvt:changed>/</stEvt:changed>
               </rdf:li>
            </rdf:Seq>
         </xmpMM:History>
      </rdf:Description>
      <rdf:Description rdf:about=""
            xmlns:illustrator="http://ns.adobe.com/illustrator/1.0/">
         <illustrator:StartupProfile>Basic CMYK</illustrator:StartupProfile>
      </rdf:Description>
      <rdf:Description rdf:about=""
            xmlns:xmpTPg="http://ns.adobe.com/xap/1.0/t/pg/"
            xmlns:stDim="http://ns.adobe.com/xap/1.0/sType/Dimensions#"
            xmlns:xmpG="http://ns.adobe.com/xap/1.0/g/">
         <xmpTPg:HasVisibleOverprint>False</xmpTPg:HasVisibleOverprint>
         <xmpTPg:HasVisibleTransparency>False</xmpTPg:HasVisibleTransparency>
         <xmpTPg:NPages>1</xmpTPg:NPages>
         <xmpTPg:MaxPageSize rdf:parseType="Resource">
            <stDim:w>5.644444</stDim:w>
            <stDim:h>2.540000</stDim:h>
            <stDim:unit>Centimeters</stDim:unit>
         </xmpTPg:MaxPageSize>
         <xmpTPg:PlateNames>
            <rdf:Seq>
               <rdf:li>Cyan</rdf:li>
               <rdf:li>Magenta</rdf:li>
               <rdf:li>Yellow</rdf:li>
               <rdf:li>Black</rdf:li>
            </rdf:Seq>
         </xmpTPg:PlateNames>
         <xmpTPg:SwatchGroups>
            <rdf:Seq>
               <rdf:li rdf:parseType="Resource">
                  <xmpG:groupName>Группа образцов по умолчанию</xmpG:groupName>
                  <xmpG:groupType>0</xmpG:groupType>
               </rdf:li>
            </rdf:Seq>
         </xmpTPg:SwatchGroups>
      </rdf:Description>
      <rdf:Description rdf:about=""
            xmlns:pdf="http://ns.adobe.com/pdf/1.3/">
         <pdf:Producer>Adobe PDF library 9.90</pdf:Producer>
      </rdf:Description>
   </rdf:RDF>
</x:xmpmeta>
                                                                                                    
                                                                                                    
                                                                                                    
                                                                                                    
                                                                                                    
                                                                                                    
                                                                                                    
                                                                                                    
                                                                                                    
                                                                                                    
                                                                                                    
                                                                                                    
                                                                                                    
                                                                                                    
                                                                                                    
                                                                                                    
                                                                                                    
                                                                                                    
                                                                                                    
                                                                                                    
                           
<?xpacket end="w"?>
	</metadata>
<g>
	<g>
		<path fill-rule="evenodd" clip-rule="evenodd" fill="#E84B3D" d="M35.231,27.29L35.231,27.29H3.965v30.661h19.765l11.501-8.358
			V27.29L35.231,27.29z M34.152,28.369v20.675l-10.772,7.827H5.043V28.369H34.152z"/>
		<path fill-rule="evenodd" clip-rule="evenodd" fill="#E84B3D" d="M17.779,40.161L17.779,40.161
			c-0.825,0.542-1.522,0.997-2.369,1.554c-0.345,0.225-0.989,0.608-0.94,1.021c0.042,0.36,1.028,0.817,1.429,0.897
			c1.09,0.216,1.752-0.492,2.411-0.939c0.856-0.578,1.609-1.099,2.452-1.674c0.377-0.259,1.101-0.579,1.022-1.063
			c-0.091-0.56-1.673-0.774-2.043-0.735C18.802,39.319,18.411,39.746,17.779,40.161L17.779,40.161L17.779,40.161z M14.224,38.813
			L14.224,38.813c0.584-0.354,0.985-0.697,1.757-0.817c0.312-0.048,1.759,0.12,1.838,0.613c0.065,0.412-0.601,0.695-0.98,0.939
			c-0.764,0.494-1.534,1.021-2.289,1.513c-0.647,0.42-1.345,1.089-2.371,0.898c-0.351-0.067-1.143-0.44-1.184-0.736
			c-0.083-0.585,1.674-1.421,2.083-1.675C13.454,39.315,13.849,39.04,14.224,38.813L14.224,38.813L14.224,38.813z M23.908,36.118
			L23.908,36.118c-0.318,0.208-0.641,0.466-0.98,0.692c-0.342,0.23-1.948,0.972-1.879,1.514c0.042,0.356,1.144,0.686,1.552,0.734
			c0.558,0.067,1.114-0.076,1.43-0.245c0.559-0.298,1.253-0.886,2.001-1.39c0.246-0.165,0.655-0.464,0.981-0.693
			c0.291-0.206,0.932-0.467,0.858-0.859c-0.09-0.479-1.842-0.645-2.288-0.571C24.834,35.425,24.438,35.769,23.908,36.118
			L23.908,36.118L23.908,36.118z M19.127,35.79L19.127,35.79c0.837-0.515,1.529-1.219,2.574-1.388
			c0.321-0.053,1.964,0.004,2.002,0.53c0.021,0.29-0.602,0.585-0.898,0.775c-0.317,0.204-0.78,0.502-1.022,0.654
			c-0.739,0.468-1.395,1.065-2.003,1.307c-0.282,0.112-0.749,0.188-1.061,0.164c-0.391-0.029-1.332-0.321-1.39-0.613
			C17.229,36.714,18.818,35.98,19.127,35.79L19.127,35.79L19.127,35.79z M31.876,35.708c-4.908,3.483-9.975,6.805-14.915,10.254
			c-3.288-1.343-6.526-2.735-9.849-4.044c4.935-3.318,10.077-6.647,15.036-9.803C25.416,33.287,28.625,34.52,31.876,35.708
			L31.876,35.708z"/>
		<path fill-rule="evenodd" clip-rule="evenodd" fill="#E84B3D" d="M32.105,36.629c0,2.109,0,4.22,0,6.331
			c-4.99,3.332-9.9,6.962-14.834,10.213c0-2.152,0-4.303,0-6.455C22.203,43.345,27.119,39.95,32.105,36.629L32.105,36.629z"/>
		<path fill-rule="evenodd" clip-rule="evenodd" fill="#E84B3D" d="M6.728,50.015c0-2.396,0-4.794,0-7.188
			c3.134,1.169,6.47,2.488,9.562,3.838c-0.028,2.288,0.054,4.686-0.041,6.905C13.049,52.409,9.898,51.203,6.728,50.015L6.728,50.015
			z"/>
	</g>
	<g>
		<path fill-rule="evenodd" clip-rule="evenodd" fill="#3D3D3C" d="M66.862,27.437c0.443,0.163,0.812,0.559,1.31,0.549
			c2.6,0.005,5.199,0.008,7.799,0c0.401,0.044,0.721-0.21,1.031-0.421c0.103-0.013,0.309-0.039,0.41-0.051
			c0.056,1.202,0.142,2.398,0.225,3.598c-0.163,0.009-0.494,0.026-0.662,0.033c-0.229-0.763-0.372-1.711-1.137-2.139
			c-0.757-0.315-1.597-0.208-2.396-0.227c-0.003,3.007,0.003,6.012-0.003,9.02c0.029,0.433-0.031,0.954,0.291,1.293
			c0.434,0.329,1.021,0.276,1.531,0.382c0.003,0.153,0.009,0.457,0.012,0.609c-2.042-0.004-4.079,0.007-6.119-0.008
			c0.007-0.152,0.021-0.457,0.027-0.608c0.443-0.08,0.914-0.08,1.326-0.276c0.409-0.218,0.394-0.75,0.422-1.147
			c0.007-3.091,0.003-6.179,0-9.267c-0.898,0.035-1.888-0.112-2.697,0.363c-0.594,0.519-0.726,1.338-0.971,2.045
			c-0.165,0-0.5,0-0.664,0C66.711,29.935,66.728,28.681,66.862,27.437L66.862,27.437z"/>
		<path fill-rule="evenodd" clip-rule="evenodd" fill="#3D3D3C" d="M57.896,35.232L57.896,35.232
			c0.957-0.007,1.915-0.004,2.872-0.003c-0.469-1.372-0.915-2.751-1.382-4.125C58.859,32.47,58.372,33.852,57.896,35.232
			L57.896,35.232L57.896,35.232z M59.754,27.998c0.317-0.076,0.638-0.153,0.955-0.23c1.166,3.297,2.36,6.583,3.588,9.857
			c0.188,0.458,0.377,0.93,0.687,1.321c0.321,0.355,0.837,0.397,1.268,0.535c-0.001,0.151-0.005,0.45-0.007,0.602
			c-1.743,0-3.487,0-5.231,0c-0.004-0.148-0.011-0.443-0.014-0.591c0.338-0.173,0.896-0.126,1.026-0.57
			c-0.171-0.944-0.586-1.819-0.902-2.719c-1.189,0.005-2.378-0.015-3.565,0.019c-0.282,0.897-0.723,1.769-0.787,2.718
			c0.26,0.447,0.841,0.399,1.269,0.542c-0.004,0.151-0.012,0.45-0.017,0.602c-1.386-0.001-2.772,0.004-4.157-0.004
			c0.004-0.148,0.013-0.448,0.016-0.598c0.746-0.09,1.504-0.424,1.767-1.186C57.046,34.873,58.392,31.432,59.754,27.998
			L59.754,27.998z"/>
		<path fill-rule="evenodd" clip-rule="evenodd" fill="#3D3D3C" d="M118.021,28.493c1.539-1.01,3.503-0.802,5.179-0.288
			c0.105,0.89,0.232,1.776,0.367,2.661c-0.157,0.042-0.469,0.13-0.625,0.172c-0.332-0.831-0.686-1.731-1.477-2.229
			c-0.814-0.545-2.127-0.362-2.584,0.562c-0.443,0.729-0.31,1.759,0.344,2.32c1.297,1.13,3.14,1.512,4.219,2.917
			c1.051,1.287,0.801,3.302-0.365,4.432c-1.674,1.608-4.344,1.524-6.338,0.605c-0.371-0.985-0.409-2.061-0.586-3.092
			c0.154-0.066,0.465-0.203,0.621-0.272c0.42,1.067,0.945,2.174,1.914,2.847c0.672,0.479,1.639,0.614,2.354,0.149
			c0.941-0.664,1.062-2.173,0.26-2.994c-1.199-1.304-3.159-1.635-4.231-3.094C115.944,31.74,116.475,29.43,118.021,28.493
			L118.021,28.493z"/>
		<path fill-rule="evenodd" clip-rule="evenodd" fill="#3D3D3C" d="M42.625,27.988c1.889,0.002,3.777-0.002,5.667,0.005
			c-0.01,0.152-0.022,0.454-0.03,0.607c-0.592,0.089-1.479,0.164-1.488,0.956c-0.085,2.737-0.004,5.485-0.04,8.227
			c0.015,0.509-0.066,1.297,0.586,1.436c0.933,0.172,1.999,0.254,2.845-0.255c0.718-0.523,0.982-1.419,1.346-2.188
			c0.163,0.046,0.481,0.139,0.646,0.188c-0.196,1.045-0.429,2.08-0.675,3.115c-3.003,0.011-6.005,0-9.007,0.004
			c-0.009-0.145-0.023-0.431-0.034-0.578c0.663-0.09,1.711-0.09,1.754-0.988c0.084-2.669,0.003-5.345,0.038-8.02
			c-0.03-0.55,0.085-1.267-0.43-1.639c-0.365-0.159-0.772-0.185-1.161-0.263C42.639,28.443,42.628,28.139,42.625,27.988
			L42.625,27.988z"/>
		<path fill-rule="evenodd" clip-rule="evenodd" fill="#3D3D3C" d="M79.733,27.988c2.877,0,5.757,0,8.634,0
			c0.035,0.943,0.119,1.881,0.178,2.821c-0.225,0.025-0.45,0.053-0.674,0.078c-0.24-0.669-0.404-1.493-1.07-1.877
			c-0.979-0.349-2.043-0.24-3.055-0.172c-0.068,1.54-0.02,3.084-0.033,4.628c0.826-0.028,1.676,0.093,2.485-0.113
			c0.562-0.161,0.579-0.876,0.777-1.325c0.153,0.002,0.462,0.005,0.617,0.007c0,1.258,0,2.515,0,3.769
			c-0.155,0.006-0.464,0.012-0.621,0.014c-0.19-0.449-0.206-1.152-0.759-1.322c-0.815-0.213-1.67-0.089-2.5-0.115
			c0.027,1.376-0.059,2.762,0.04,4.135c0.019,0.554,0.594,0.781,1.072,0.785c0.903,0.044,1.922,0.157,2.719-0.357
			c0.636-0.519,0.923-1.321,1.28-2.033c0.219,0.046,0.434,0.092,0.65,0.139c-0.186,1.016-0.395,2.03-0.656,3.031
			c-3.125,0.008-6.25,0.003-9.374,0.004c-0.007-0.145-0.021-0.434-0.025-0.578c0.507-0.1,1.074-0.074,1.52-0.38
			c0.271-0.38,0.258-0.869,0.268-1.314c-0.007-2.516-0.008-5.031,0-7.547c-0.007-0.454,0.004-0.953-0.279-1.336
			c-0.363-0.233-0.814-0.241-1.218-0.346C79.713,28.434,79.729,28.137,79.733,27.988L79.733,27.988z"/>
		<path fill-rule="evenodd" clip-rule="evenodd" fill="#3D3D3C" d="M95.297,29.361L95.297,29.361
			c-0.02,1.602,0.002,3.208-0.007,4.809c0.827-0.032,1.794,0.004,2.421-0.636c0.871-0.933,0.909-2.399,0.457-3.536
			c-0.344-0.918-1.399-1.415-2.342-1.238C95.521,28.77,95.263,29.055,95.297,29.361L95.297,29.361L95.297,29.361z M91.375,27.986
			c1.785,0.009,3.57-0.007,5.355,0.004c1.069,0.049,2.225,0.093,3.139,0.727c1.393,0.971,1.598,3.213,0.439,4.444
			c-0.426,0.484-1.005,0.779-1.561,1.084c0.891,1.569,1.739,3.178,2.855,4.599c0.342,0.558,1.33,0.693,1.154,1.484
			c-1.259-0.07-2.713-0.041-3.702-0.959c-1.101-1.133-1.567-2.693-2.407-4.002c-0.29-0.467-0.869-0.465-1.35-0.521
			c-0.011,0.991-0.011,1.979-0.011,2.965c0.009,0.446,0.009,0.944,0.302,1.309c0.358,0.264,0.834,0.25,1.25,0.354
			c-0.005,0.153-0.014,0.457-0.018,0.609c-1.863,0-3.724,0-5.584,0c0.004-0.151,0.01-0.452,0.014-0.602
			c0.6-0.118,1.523-0.156,1.548-0.967c0.101-2.517,0.009-5.043,0.043-7.562c-0.023-0.623,0.085-1.289-0.192-1.868
			c-0.313-0.388-0.875-0.345-1.31-0.479C91.352,28.449,91.369,28.142,91.375,27.986L91.375,27.986z"/>
		<path fill-rule="evenodd" clip-rule="evenodd" fill="#3D3D3C" d="M104.613,27.988c2.877,0,5.754,0.002,8.631,0
			c0.036,0.941,0.117,1.879,0.18,2.816c-0.227,0.027-0.451,0.057-0.677,0.084c-0.239-0.671-0.401-1.496-1.071-1.879
			c-0.977-0.351-2.039-0.24-3.054-0.172c-0.066,1.543-0.019,3.084-0.032,4.624c0.828-0.024,1.675,0.097,2.486-0.109
			c0.561-0.163,0.579-0.878,0.775-1.327c0.156,0.002,0.466,0.009,0.617,0.012c0,1.256,0,2.512,0,3.771
			c-0.153,0-0.465,0.003-0.623,0.003c-0.186-0.452-0.208-1.151-0.768-1.32c-0.812-0.205-1.66-0.086-2.488-0.112
			c0.014,1.307-0.029,2.611,0.016,3.916c0,0.386,0.176,0.843,0.604,0.919c0.909,0.174,1.874,0.197,2.772-0.044
			c0.963-0.359,1.287-1.438,1.727-2.264c0.212,0.048,0.426,0.096,0.641,0.141c-0.187,1.02-0.393,2.033-0.654,3.035
			c-3.125,0-6.25,0-9.373,0c-0.008-0.145-0.02-0.434-0.027-0.578c0.671-0.103,1.75-0.076,1.754-1.013
			c0.078-2.582,0.004-5.171,0.034-7.758c-0.02-0.602,0.085-1.277-0.275-1.805c-0.362-0.235-0.821-0.243-1.226-0.349
			C104.59,28.43,104.604,28.134,104.613,27.988L104.613,27.988z"/>
		<path fill-rule="evenodd" clip-rule="evenodd" fill="#9B9A9B" d="M136.222,29.328L136.222,29.328
			c-0.05,1.613,0.009,3.228-0.015,4.84c0.822-0.064,1.781-0.008,2.413-0.643c0.884-0.939,0.925-2.437,0.448-3.579
			c-0.358-0.902-1.4-1.376-2.33-1.201C136.446,28.767,136.193,29.03,136.222,29.328L136.222,29.328L136.222,29.328z M132.283,27.973
			c1.791,0.007,3.577-0.013,5.365,0.004c1.072,0.044,2.229,0.095,3.143,0.728c1.298,0.917,1.562,2.933,0.639,4.199
			c-0.447,0.606-1.124,0.966-1.759,1.335c1.157,1.945,2.091,4.137,3.92,5.56c0.036,0.131,0.106,0.39,0.143,0.521
			c-1.237-0.075-2.638-0.034-3.652-0.866c-1.19-1.117-1.634-2.756-2.512-4.088c-0.282-0.487-0.884-0.458-1.369-0.518
			c0.052,1.275-0.103,2.566,0.097,3.834c0.108,0.682,0.945,0.629,1.447,0.801c0.002,0.146,0,0.436,0,0.581
			c-1.862,0.006-3.725,0.003-5.59,0.003c0.003-0.146,0.014-0.437,0.016-0.581c0.588-0.157,1.533-0.181,1.543-0.998
			c0.115-2.439,0.004-4.885,0.053-7.326c-0.03-0.696,0.092-1.439-0.201-2.092c-0.312-0.365-0.869-0.343-1.29-0.499
			C132.276,28.423,132.281,28.122,132.283,27.973L132.283,27.973z"/>
		<path fill-rule="evenodd" clip-rule="evenodd" fill="#9B9A9B" d="M144.308,27.98c1.868-0.012,3.738-0.012,5.61,0
			c-0.01,0.143-0.024,0.428-0.031,0.572c-0.51,0.167-1.322,0.132-1.438,0.805c-0.186,1.277-0.043,2.576-0.088,3.865
			c0.01,1.575-0.143,3.305,0.765,4.686c0.994,1.548,3.591,1.518,4.588-0.012c0.812-1.24,0.816-2.79,0.817-4.221
			c-0.024-1.374,0.08-2.775-0.231-4.124c-0.182-0.802-1.122-0.837-1.765-1.009c-0.002-0.142-0.01-0.424-0.01-0.566
			c1.539-0.008,3.077-0.004,4.617-0.002c0,0.139,0.004,0.419,0.006,0.559c-0.555,0.196-1.355,0.297-1.496,0.992
			c-0.498,2.419,0.09,4.937-0.475,7.351c-0.252,1.021-0.799,2.025-1.703,2.608c-1.549,1.015-3.607,1.024-5.283,0.324
			c-1.23-0.502-1.986-1.749-2.177-3.026c-0.383-2.454,0.022-4.958-0.245-7.421c-0.114-0.681-0.932-0.647-1.443-0.812
			C144.321,28.409,144.312,28.123,144.308,27.98L144.308,27.98z"/>
		<path fill-rule="evenodd" clip-rule="evenodd" fill="#3D3D3C" d="M127.441,37.633c0.797-0.427,1.905,0.129,1.961,1.053
			c0.22,0.986-0.859,1.883-1.792,1.533C126.482,39.886,126.363,38.104,127.441,37.633L127.441,37.633z"/>
		<path fill-rule="evenodd" clip-rule="evenodd" fill="#3D3D3C" d="M43.365,43.131c-0.25,0.101-0.471,0.222-0.667,0.365l0.363,0.514
			c0.068-0.061,0.144-0.113,0.242-0.166c0.099-0.045,0.197-0.09,0.303-0.13c0.105-0.038,0.212-0.061,0.326-0.083
			c0.105-0.022,0.204-0.028,0.294-0.028c0.287,0,0.53,0.06,0.727,0.181c0.189,0.121,0.288,0.309,0.288,0.568
			c0,0.15-0.032,0.279-0.092,0.392c-0.061,0.113-0.136,0.204-0.228,0.274c-0.091,0.074-0.189,0.127-0.301,0.166
			c-0.114,0.037-0.228,0.051-0.334,0.051h-0.545v0.583h0.591c0.303,0,0.538,0.076,0.711,0.221c0.166,0.15,0.25,0.37,0.25,0.657
			c0,0.303-0.091,0.544-0.281,0.719c-0.188,0.183-0.491,0.273-0.908,0.273c-0.09,0-0.197-0.016-0.309-0.04
			c-0.115-0.021-0.227-0.051-0.342-0.091c-0.113-0.037-0.226-0.081-0.325-0.137c-0.106-0.052-0.197-0.104-0.264-0.157l-0.364,0.515
			c0.083,0.068,0.181,0.136,0.302,0.196c0.115,0.068,0.242,0.119,0.387,0.167c0.135,0.051,0.278,0.09,0.437,0.114
			c0.16,0.028,0.312,0.046,0.47,0.046c0.266,0,0.507-0.032,0.741-0.1c0.228-0.061,0.424-0.159,0.592-0.296
			c0.167-0.128,0.294-0.296,0.393-0.498c0.099-0.205,0.145-0.44,0.145-0.72c0-0.121-0.016-0.243-0.046-0.371
			c-0.03-0.121-0.076-0.232-0.144-0.347c-0.069-0.106-0.151-0.204-0.25-0.287c-0.098-0.085-0.219-0.153-0.363-0.198
			c0.243-0.09,0.423-0.242,0.552-0.462c0.128-0.21,0.188-0.445,0.188-0.703c0-0.242-0.045-0.446-0.136-0.62
			c-0.092-0.166-0.211-0.301-0.354-0.408c-0.153-0.105-0.327-0.182-0.515-0.234c-0.197-0.046-0.401-0.067-0.614-0.067
			C43.917,42.989,43.614,43.033,43.365,43.131L43.365,43.131z"/>
		<path fill-rule="evenodd" clip-rule="evenodd" fill="#3D3D3C" d="M49.032,47.897l0.075,0.349h0.575v-2.48
			c0-0.446-0.121-0.771-0.355-0.992c-0.236-0.212-0.597-0.318-1.09-0.318c-0.21,0-0.438,0.031-0.688,0.084s-0.492,0.175-0.733,0.363
			l0.317,0.492c0.189-0.16,0.386-0.258,0.575-0.297c0.19-0.035,0.35-0.052,0.479-0.052c0.272,0,0.483,0.052,0.626,0.151
			c0.146,0.107,0.22,0.287,0.22,0.552v0.289h-1.097c-0.129,0-0.266,0.014-0.425,0.053c-0.159,0.038-0.31,0.104-0.447,0.189
			c-0.143,0.091-0.256,0.202-0.347,0.349c-0.098,0.142-0.145,0.315-0.145,0.521c0,0.349,0.106,0.619,0.327,0.824
			c0.219,0.203,0.506,0.302,0.869,0.302c0.152,0,0.326-0.021,0.515-0.074c0.19-0.046,0.431-0.152,0.727-0.316L49.032,47.897
			L49.032,47.897z M49.032,47.286c-0.075,0.038-0.16,0.082-0.25,0.128c-0.09,0.053-0.182,0.099-0.28,0.137
			c-0.099,0.035-0.205,0.075-0.303,0.097c-0.104,0.032-0.204,0.046-0.303,0.046c-0.19,0-0.348-0.046-0.47-0.137
			c-0.128-0.09-0.188-0.227-0.188-0.407c0-0.129,0.03-0.228,0.083-0.311c0.053-0.076,0.115-0.136,0.197-0.174
			c0.083-0.036,0.166-0.06,0.266-0.076c0.091-0.008,0.173-0.015,0.257-0.015l0.991-0.001V47.286z"/>
		<path fill-rule="evenodd" clip-rule="evenodd" fill="#3D3D3C" d="M53.269,46.649c-0.083-0.159-0.211-0.278-0.4-0.362
			c0.16-0.082,0.271-0.196,0.34-0.34c0.068-0.146,0.107-0.281,0.107-0.418c0-0.135-0.024-0.263-0.07-0.393
			c-0.046-0.119-0.113-0.227-0.204-0.324c-0.098-0.099-0.212-0.176-0.355-0.228c-0.144-0.053-0.31-0.083-0.507-0.083h-1.809v3.744
			h1.824c0.197,0,0.371-0.03,0.523-0.099c0.143-0.067,0.271-0.152,0.369-0.263c0.098-0.107,0.167-0.229,0.22-0.365
			c0.053-0.137,0.075-0.273,0.075-0.408C53.382,46.967,53.345,46.809,53.269,46.649L53.269,46.649L53.269,46.649z M52.573,47.52
			c-0.098,0.099-0.265,0.152-0.492,0.152h-1.059v-1.091h1.128c0.144,0,0.28,0.048,0.393,0.136c0.122,0.1,0.182,0.228,0.182,0.395
			C52.725,47.286,52.672,47.42,52.573,47.52L52.573,47.52L52.573,47.52z M52.514,45.879c-0.1,0.082-0.236,0.12-0.403,0.12h-1.089
			v-0.921h1.053c0.143,0,0.278,0.036,0.4,0.105c0.121,0.076,0.182,0.195,0.182,0.354C52.656,45.688,52.611,45.802,52.514,45.879
			L52.514,45.879z"/>
		<path fill-rule="evenodd" clip-rule="evenodd" fill="#3D3D3C" d="M57.158,45.834c0-0.221-0.037-0.408-0.113-0.583
			c-0.076-0.166-0.181-0.312-0.325-0.432c-0.136-0.113-0.303-0.203-0.493-0.272c-0.189-0.061-0.393-0.092-0.62-0.092
			c-0.22,0-0.415,0.031-0.605,0.092c-0.19,0.069-0.355,0.159-0.493,0.272c-0.144,0.12-0.249,0.266-0.333,0.432
			c-0.082,0.175-0.128,0.362-0.128,0.583v1.088c0,0.22,0.038,0.408,0.122,0.576c0.082,0.174,0.189,0.315,0.333,0.43
			c0.136,0.114,0.301,0.204,0.484,0.264c0.188,0.063,0.394,0.092,0.612,0.092c0.212,0,0.409-0.028,0.599-0.092
			c0.181-0.06,0.347-0.149,0.491-0.264s0.258-0.256,0.34-0.43c0.083-0.168,0.128-0.356,0.128-0.576V45.834L57.158,45.834z
			 M56.508,46.795c0,0.157-0.031,0.294-0.083,0.407c-0.053,0.112-0.129,0.205-0.212,0.273c-0.09,0.067-0.188,0.121-0.295,0.15
			c-0.106,0.03-0.213,0.046-0.31,0.046c-0.127,0-0.243-0.016-0.355-0.046c-0.115-0.029-0.205-0.083-0.288-0.15
			c-0.083-0.068-0.144-0.159-0.189-0.273c-0.053-0.113-0.075-0.25-0.075-0.407v-0.848c0-0.16,0.029-0.296,0.083-0.409
			c0.053-0.112,0.129-0.204,0.22-0.271c0.083-0.069,0.181-0.122,0.288-0.152c0.106-0.029,0.211-0.045,0.317-0.045
			c0.097,0,0.204,0.016,0.31,0.045c0.107,0.03,0.205,0.083,0.295,0.152c0.083,0.067,0.159,0.159,0.212,0.271
			c0.053,0.113,0.083,0.249,0.083,0.409V46.795z"/>
		<path fill-rule="evenodd" clip-rule="evenodd" fill="#3D3D3C" d="M60.586,45.078v2.602h-1.861
			c0.112-0.175,0.188-0.385,0.234-0.644c0.038-0.25,0.068-0.577,0.089-0.969l0.047-0.989H60.586L60.586,45.078z M57.613,47.701
			v1.506h0.612v-0.961h2.709v0.961h0.612v-1.52l-0.31-0.008v-3.178h-2.707l-0.092,1.589c-0.015,0.243-0.039,0.446-0.06,0.619
			c-0.022,0.174-0.062,0.326-0.106,0.446c-0.046,0.13-0.098,0.229-0.167,0.311c-0.069,0.084-0.144,0.159-0.234,0.221L57.613,47.701z
			"/>
		<path fill-rule="evenodd" clip-rule="evenodd" fill="#3D3D3C" d="M66.866,46.649c-0.084-0.159-0.212-0.278-0.401-0.362
			c0.159-0.082,0.271-0.196,0.34-0.34c0.068-0.146,0.106-0.281,0.106-0.418c0-0.135-0.024-0.263-0.069-0.393
			c-0.045-0.119-0.112-0.227-0.203-0.324c-0.099-0.099-0.213-0.176-0.357-0.228c-0.143-0.053-0.31-0.083-0.506-0.083h-1.81v3.744
			h1.824c0.196,0,0.371-0.03,0.523-0.099c0.143-0.067,0.272-0.152,0.37-0.263c0.097-0.107,0.167-0.229,0.219-0.365
			s0.075-0.273,0.075-0.408C66.979,46.967,66.942,46.809,66.866,46.649L66.866,46.649L66.866,46.649z M66.169,47.52
			c-0.097,0.099-0.264,0.152-0.492,0.152h-1.06v-1.091h1.128c0.143,0,0.28,0.048,0.392,0.136c0.124,0.1,0.183,0.228,0.183,0.395
			C66.321,47.286,66.269,47.42,66.169,47.52L66.169,47.52L66.169,47.52z M66.109,45.879c-0.098,0.082-0.234,0.12-0.402,0.12h-1.089
			v-0.921h1.053c0.144,0,0.28,0.036,0.402,0.105c0.12,0.076,0.181,0.195,0.181,0.354C66.254,45.688,66.208,45.802,66.109,45.879z"/>
		<polygon fill-rule="evenodd" clip-rule="evenodd" fill="#3D3D3C" points="68.311,47.202 68.311,44.502 67.661,44.502 
			67.661,48.246 68.258,48.246 69.5,46.408 70.066,45.538 70.104,45.538 70.104,48.246 70.771,48.246 70.771,44.502 70.158,44.502 
			68.901,46.346 68.342,47.202 		"/>
		<path fill-rule="evenodd" clip-rule="evenodd" fill="#3D3D3C" d="M72.223,44.978c0.031-0.195,0.076-0.354,0.122-0.483
			c0.053-0.131,0.128-0.24,0.219-0.333c0.098-0.099,0.219-0.181,0.357-0.257c0.144-0.077,0.316-0.159,0.528-0.251
			c0.067-0.029,0.129-0.051,0.174-0.074c0.053-0.015,0.107-0.039,0.174-0.062c0.062-0.021,0.138-0.06,0.229-0.099
			c0.088-0.037,0.211-0.083,0.362-0.151l-0.235-0.545c-0.076,0.038-0.144,0.07-0.197,0.092s-0.106,0.045-0.152,0.067
			c-0.045,0.023-0.091,0.039-0.128,0.054c-0.045,0.023-0.098,0.047-0.16,0.068c-0.173,0.069-0.355,0.144-0.552,0.219
			c-0.189,0.076-0.364,0.168-0.531,0.266c-0.195,0.12-0.354,0.272-0.476,0.445c-0.12,0.175-0.212,0.364-0.28,0.568
			c-0.066,0.204-0.105,0.424-0.129,0.643c-0.021,0.229-0.037,0.446-0.037,0.666v1.073c0,0.44,0.136,0.779,0.41,1.029
			c0.272,0.249,0.65,0.37,1.141,0.37c0.213,0,0.408-0.028,0.599-0.098c0.181-0.061,0.346-0.151,0.49-0.272
			c0.144-0.12,0.257-0.271,0.341-0.446c0.083-0.172,0.127-0.37,0.127-0.583v-0.854c0-0.432-0.12-0.77-0.372-1.012
			c-0.241-0.244-0.604-0.365-1.072-0.365c-0.06,0-0.129,0.007-0.205,0.017c-0.075,0.006-0.16,0.029-0.25,0.059
			c-0.083,0.023-0.167,0.062-0.258,0.106c-0.083,0.047-0.158,0.105-0.226,0.174L72.223,44.978L72.223,44.978z M73.972,46.786
			c0,0.166-0.023,0.303-0.078,0.416c-0.051,0.112-0.112,0.205-0.196,0.273c-0.085,0.067-0.183,0.121-0.287,0.15
			c-0.114,0.03-0.228,0.046-0.342,0.046c-0.127,0-0.241-0.016-0.355-0.046c-0.115-0.029-0.204-0.083-0.287-0.15
			c-0.083-0.068-0.144-0.159-0.189-0.273c-0.053-0.113-0.076-0.25-0.076-0.416v-0.605c0-0.166,0.031-0.302,0.083-0.415
			c0.053-0.114,0.129-0.212,0.219-0.287c0.084-0.069,0.182-0.122,0.288-0.159c0.106-0.038,0.211-0.053,0.317-0.053
			c0.281,0,0.5,0.067,0.66,0.196c0.158,0.128,0.243,0.354,0.243,0.688V46.786z"/>
		<path fill-rule="evenodd" clip-rule="evenodd" fill="#3D3D3C" d="M75.356,44.502v5.242h0.649v-1.688
			c0.251,0.099,0.47,0.167,0.651,0.189c0.182,0.029,0.341,0.045,0.479,0.045c0.4,0,0.727-0.114,0.96-0.348
			c0.234-0.235,0.349-0.558,0.349-0.991v-1.15c0-0.462-0.114-0.794-0.349-1.012c-0.233-0.221-0.538-0.327-0.901-0.327
			c-0.136,0-0.295,0.031-0.476,0.084c-0.175,0.054-0.417,0.175-0.712,0.348l-0.076-0.393H75.356L75.356,44.502z M76.005,45.529
			c0.084-0.051,0.174-0.113,0.272-0.165c0.101-0.053,0.204-0.098,0.302-0.137c0.108-0.036,0.206-0.076,0.304-0.1
			c0.091-0.021,0.174-0.036,0.243-0.036c0.204,0,0.363,0.053,0.484,0.159c0.12,0.113,0.181,0.311,0.181,0.597v1.074
			c0,0.144-0.015,0.266-0.052,0.364c-0.038,0.097-0.092,0.181-0.16,0.233c-0.067,0.061-0.144,0.099-0.227,0.122
			c-0.091,0.021-0.181,0.038-0.288,0.038c-0.15,0-0.31-0.017-0.469-0.045c-0.167-0.032-0.355-0.092-0.591-0.19V45.529z"/>
		<path fill-rule="evenodd" clip-rule="evenodd" fill="#3D3D3C" d="M82.255,45.834c0-0.221-0.036-0.408-0.112-0.583
			c-0.076-0.166-0.182-0.312-0.325-0.432c-0.136-0.113-0.302-0.203-0.493-0.272c-0.188-0.061-0.391-0.092-0.619-0.092
			c-0.22,0-0.416,0.031-0.605,0.092c-0.189,0.069-0.355,0.159-0.491,0.272c-0.145,0.12-0.251,0.266-0.334,0.432
			c-0.083,0.175-0.129,0.362-0.129,0.583l0.001,1.088c0,0.22,0.037,0.408,0.121,0.576c0.083,0.174,0.188,0.315,0.333,0.43
			c0.135,0.114,0.301,0.204,0.483,0.264c0.19,0.063,0.393,0.092,0.613,0.092c0.213,0,0.408-0.028,0.598-0.092
			c0.182-0.06,0.348-0.149,0.492-0.264c0.143-0.114,0.258-0.256,0.34-0.43c0.082-0.168,0.128-0.356,0.128-0.576V45.834
			L82.255,45.834z M81.605,46.795c0,0.157-0.031,0.294-0.084,0.407c-0.053,0.112-0.127,0.205-0.211,0.273
			c-0.091,0.067-0.189,0.121-0.296,0.15c-0.104,0.03-0.212,0.046-0.31,0.046c-0.131,0-0.243-0.016-0.355-0.046
			c-0.114-0.029-0.205-0.083-0.288-0.15c-0.083-0.068-0.143-0.159-0.188-0.273c-0.052-0.113-0.076-0.25-0.076-0.407v-0.848
			c0-0.16,0.031-0.296,0.083-0.409c0.052-0.112,0.129-0.204,0.22-0.271c0.083-0.069,0.183-0.122,0.288-0.152
			c0.106-0.029,0.21-0.045,0.318-0.045c0.098,0,0.205,0.016,0.31,0.045c0.106,0.03,0.205,0.083,0.296,0.152
			c0.084,0.067,0.158,0.159,0.211,0.271c0.053,0.113,0.084,0.249,0.084,0.409V46.795z"/>
		<polygon fill-rule="evenodd" clip-rule="evenodd" fill="#3D3D3C" points="86.062,48.246 86.062,44.502 82.975,44.502 
			82.975,48.246 83.627,48.246 83.627,45.078 85.41,45.078 85.41,48.246 		"/>
		<path fill-rule="evenodd" clip-rule="evenodd" fill="#3D3D3C" d="M86.805,44.502v5.242h0.649v-1.688
			c0.251,0.099,0.468,0.167,0.649,0.189c0.182,0.029,0.342,0.045,0.479,0.045c0.4,0,0.726-0.114,0.961-0.348
			c0.234-0.235,0.348-0.558,0.348-0.991v-1.15c0-0.462-0.113-0.794-0.348-1.012c-0.235-0.221-0.537-0.327-0.902-0.327
			c-0.135,0-0.294,0.031-0.476,0.084c-0.175,0.054-0.416,0.175-0.711,0.348l-0.077-0.393H86.805L86.805,44.502z M87.454,45.529
			c0.083-0.051,0.173-0.113,0.271-0.165c0.099-0.053,0.205-0.098,0.303-0.137c0.107-0.036,0.206-0.076,0.304-0.1
			c0.092-0.021,0.174-0.036,0.24-0.036c0.205,0,0.365,0.053,0.486,0.159c0.121,0.113,0.182,0.311,0.182,0.597v1.074
			c0,0.144-0.014,0.266-0.054,0.364c-0.038,0.097-0.09,0.181-0.158,0.233c-0.067,0.061-0.146,0.099-0.227,0.122
			c-0.09,0.021-0.182,0.038-0.288,0.038c-0.152,0-0.31-0.017-0.469-0.045c-0.168-0.032-0.357-0.092-0.591-0.19V45.529z"/>
		<path fill-rule="evenodd" clip-rule="evenodd" fill="#3D3D3C" d="M93.605,46.612v-0.741c0-0.22-0.037-0.416-0.107-0.59
			c-0.072-0.175-0.179-0.318-0.31-0.44c-0.135-0.119-0.294-0.21-0.482-0.279c-0.183-0.067-0.387-0.099-0.604-0.099
			c-0.229,0-0.434,0.031-0.615,0.099c-0.18,0.069-0.34,0.166-0.477,0.295c-0.128,0.132-0.232,0.28-0.311,0.463
			c-0.073,0.181-0.113,0.385-0.113,0.604v0.991c0,0.227,0.047,0.424,0.13,0.598c0.083,0.175,0.196,0.311,0.339,0.424
			c0.145,0.112,0.312,0.204,0.5,0.255c0.19,0.063,0.394,0.092,0.605,0.092c0.234,0,0.478-0.037,0.71-0.113
			c0.235-0.067,0.449-0.204,0.637-0.401l-0.408-0.444c-0.159,0.143-0.317,0.24-0.484,0.294s-0.31,0.075-0.44,0.075
			c-0.119,0-0.232-0.014-0.346-0.046c-0.113-0.029-0.219-0.083-0.303-0.149c-0.092-0.068-0.158-0.152-0.212-0.259
			c-0.054-0.098-0.075-0.227-0.075-0.378v-0.249H93.605L93.605,46.612z M92.956,46.084h-1.711v-0.168
			c0-0.144,0.022-0.272,0.068-0.387c0.045-0.104,0.104-0.195,0.19-0.263c0.083-0.069,0.171-0.122,0.271-0.16
			c0.099-0.037,0.212-0.054,0.327-0.054c0.111,0,0.227,0.017,0.331,0.045c0.099,0.039,0.19,0.094,0.273,0.162
			c0.075,0.074,0.136,0.166,0.182,0.278c0.045,0.113,0.068,0.241,0.068,0.4V46.084z"/>
		<path fill-rule="evenodd" clip-rule="evenodd" fill="#3D3D3C" d="M95.164,44.547c-0.182,0.069-0.34,0.159-0.477,0.279
			c-0.136,0.121-0.243,0.266-0.326,0.44c-0.082,0.172-0.12,0.362-0.12,0.573v1.112c0,0.197,0.037,0.378,0.113,0.538
			c0.068,0.166,0.175,0.309,0.31,0.423c0.129,0.114,0.289,0.205,0.471,0.272c0.182,0.069,0.387,0.098,0.604,0.098
			c0.22,0,0.431-0.028,0.651-0.098c0.211-0.067,0.41-0.19,0.582-0.372l-0.4-0.454c-0.115,0.116-0.25,0.197-0.408,0.243
			c-0.16,0.045-0.295,0.069-0.408,0.069c-0.106,0-0.213-0.016-0.312-0.046c-0.106-0.029-0.196-0.083-0.28-0.15
			c-0.082-0.068-0.143-0.159-0.198-0.273c-0.052-0.113-0.075-0.25-0.075-0.407v-0.848c0-0.16,0.032-0.296,0.086-0.409
			c0.051-0.112,0.119-0.204,0.203-0.271c0.082-0.069,0.175-0.122,0.279-0.152c0.099-0.029,0.196-0.045,0.297-0.045
			c0.113,0,0.24,0.016,0.385,0.052c0.143,0.039,0.297,0.139,0.461,0.295l0.387-0.49c-0.174-0.198-0.378-0.325-0.598-0.379
			c-0.227-0.061-0.449-0.092-0.666-0.092C95.529,44.455,95.338,44.486,95.164,44.547L95.164,44.547z"/>
		<path fill-rule="evenodd" clip-rule="evenodd" fill="#3D3D3C" d="M98.41,44.547c-0.181,0.069-0.34,0.159-0.477,0.279
			c-0.138,0.121-0.242,0.266-0.326,0.44c-0.082,0.172-0.121,0.362-0.121,0.573v1.112c0,0.197,0.039,0.378,0.115,0.538
			c0.068,0.166,0.173,0.309,0.309,0.423c0.129,0.114,0.287,0.205,0.471,0.272c0.182,0.069,0.387,0.098,0.605,0.098
			s0.432-0.028,0.65-0.098c0.212-0.067,0.408-0.19,0.582-0.372l-0.4-0.454c-0.115,0.116-0.25,0.197-0.408,0.243
			c-0.16,0.045-0.297,0.069-0.41,0.069c-0.105,0-0.211-0.016-0.311-0.046c-0.104-0.029-0.195-0.083-0.279-0.15
			c-0.083-0.068-0.143-0.159-0.196-0.273c-0.053-0.113-0.076-0.25-0.076-0.407v-0.848c0-0.16,0.03-0.296,0.083-0.409
			c0.055-0.112,0.121-0.204,0.205-0.271c0.082-0.069,0.172-0.122,0.28-0.152c0.098-0.029,0.196-0.045,0.294-0.045
			c0.113,0,0.242,0.016,0.387,0.052c0.144,0.039,0.295,0.139,0.462,0.295l0.386-0.49c-0.174-0.198-0.379-0.325-0.598-0.379
			c-0.227-0.061-0.447-0.092-0.666-0.092C98.773,44.455,98.586,44.486,98.41,44.547L98.41,44.547z"/>
		<path fill-rule="evenodd" clip-rule="evenodd" fill="#3D3D3C" d="M103.85,45.834c0-0.221-0.035-0.408-0.111-0.583
			c-0.076-0.166-0.183-0.312-0.327-0.432c-0.136-0.113-0.3-0.203-0.491-0.272c-0.189-0.061-0.393-0.092-0.621-0.092
			c-0.217,0-0.415,0.031-0.604,0.092c-0.189,0.069-0.356,0.159-0.493,0.272c-0.142,0.12-0.249,0.266-0.333,0.432
			c-0.084,0.175-0.128,0.362-0.128,0.583v1.088c0,0.22,0.038,0.408,0.121,0.576c0.083,0.174,0.19,0.315,0.333,0.43
			c0.138,0.114,0.302,0.204,0.483,0.264c0.19,0.063,0.394,0.092,0.613,0.092c0.211,0,0.409-0.028,0.6-0.092
			c0.181-0.06,0.347-0.149,0.489-0.264c0.145-0.114,0.259-0.256,0.342-0.43c0.082-0.168,0.127-0.356,0.127-0.576V45.834
			L103.85,45.834z M103.199,46.795c0,0.157-0.029,0.294-0.082,0.407c-0.055,0.112-0.129,0.205-0.213,0.273
			c-0.089,0.067-0.188,0.121-0.295,0.15c-0.106,0.03-0.213,0.046-0.311,0.046c-0.127,0-0.24-0.016-0.355-0.046
			c-0.113-0.029-0.203-0.083-0.286-0.15c-0.085-0.068-0.146-0.159-0.19-0.273c-0.053-0.113-0.076-0.25-0.076-0.407v-0.848
			c0-0.16,0.032-0.296,0.084-0.409c0.053-0.112,0.129-0.204,0.221-0.271c0.082-0.069,0.18-0.122,0.287-0.152
			c0.106-0.029,0.211-0.045,0.316-0.045c0.098,0,0.204,0.016,0.311,0.045c0.107,0.03,0.206,0.083,0.295,0.152
			c0.084,0.067,0.158,0.159,0.213,0.271c0.053,0.113,0.082,0.249,0.082,0.409V46.795z"/>
		<path fill-rule="evenodd" clip-rule="evenodd" fill="#3D3D3C" d="M107.431,46.649c-0.085-0.159-0.212-0.278-0.401-0.362
			c0.158-0.082,0.271-0.196,0.34-0.34c0.07-0.146,0.106-0.281,0.106-0.418c0-0.135-0.023-0.263-0.067-0.393
			c-0.045-0.119-0.115-0.227-0.206-0.324c-0.099-0.099-0.212-0.176-0.354-0.228c-0.146-0.053-0.311-0.083-0.507-0.083h-1.808v3.744
			h1.821c0.198,0,0.371-0.03,0.522-0.099c0.146-0.067,0.271-0.152,0.37-0.263c0.099-0.107,0.167-0.229,0.22-0.365
			s0.077-0.273,0.077-0.408C107.544,46.967,107.505,46.809,107.431,46.649L107.431,46.649L107.431,46.649z M106.734,47.52
			c-0.1,0.099-0.267,0.152-0.492,0.152h-1.061v-1.091h1.129c0.143,0,0.278,0.048,0.392,0.136c0.122,0.1,0.183,0.228,0.183,0.395
			C106.885,47.286,106.832,47.42,106.734,47.52L106.734,47.52L106.734,47.52z M106.674,45.879c-0.098,0.082-0.234,0.12-0.402,0.12
			h-1.09v-0.921h1.053c0.144,0,0.279,0.036,0.4,0.105c0.121,0.076,0.181,0.195,0.181,0.354
			C106.815,45.688,106.771,45.802,106.674,45.879L106.674,45.879z"/>
		<path fill-rule="evenodd" clip-rule="evenodd" fill="#3D3D3C" d="M110.592,47.897l0.076,0.349h0.574v-2.48
			c0-0.446-0.119-0.771-0.354-0.992c-0.234-0.212-0.599-0.318-1.09-0.318c-0.211,0-0.439,0.031-0.689,0.084s-0.49,0.175-0.734,0.363
			l0.318,0.492c0.189-0.16,0.386-0.258,0.576-0.297c0.188-0.035,0.348-0.052,0.475-0.052c0.271,0,0.486,0.052,0.63,0.151
			c0.143,0.107,0.218,0.287,0.218,0.552v0.289h-1.098c-0.127,0-0.264,0.014-0.422,0.053c-0.161,0.038-0.312,0.104-0.448,0.189
			c-0.141,0.091-0.256,0.202-0.347,0.349c-0.098,0.142-0.143,0.315-0.143,0.521c0,0.349,0.105,0.619,0.324,0.824
			c0.219,0.203,0.506,0.302,0.869,0.302c0.153,0,0.326-0.021,0.516-0.074c0.188-0.046,0.432-0.152,0.727-0.316L110.592,47.897
			L110.592,47.897z M110.592,47.286c-0.075,0.038-0.158,0.082-0.25,0.128c-0.09,0.053-0.18,0.099-0.279,0.137
			c-0.099,0.035-0.205,0.075-0.302,0.097c-0.106,0.032-0.206,0.046-0.304,0.046c-0.188,0-0.348-0.046-0.469-0.137
			c-0.129-0.09-0.189-0.227-0.189-0.407c0-0.129,0.031-0.228,0.084-0.311c0.054-0.076,0.113-0.136,0.196-0.174
			c0.083-0.036,0.167-0.06,0.266-0.076c0.092-0.008,0.173-0.015,0.257-0.015l0.99-0.001V47.286z"/>
		<polygon fill-rule="evenodd" clip-rule="evenodd" fill="#3D3D3C" points="115.072,48.246 115.072,44.502 114.421,44.502 
			114.421,46.061 112.636,46.061 112.636,44.502 111.984,44.502 111.984,48.246 112.636,48.246 112.636,46.649 114.421,46.649 
			114.421,48.246 		"/>
		<polygon fill-rule="evenodd" clip-rule="evenodd" fill="#3D3D3C" points="118.93,48.246 118.93,44.502 118.279,44.502 
			118.279,46.061 116.495,46.061 116.495,44.502 115.846,44.502 115.846,48.246 116.495,48.246 116.495,46.649 118.279,46.649 
			118.279,48.246 		"/>
		<path fill-rule="evenodd" clip-rule="evenodd" fill="#3D3D3C" d="M123.638,48.246v-3.744h-0.628v3.744H123.638L123.638,48.246z
			 M121.819,47.52c-0.12,0.099-0.286,0.152-0.505,0.152h-0.977v-1.15h0.977c0.244,0,0.418,0.06,0.523,0.174
			c0.105,0.121,0.158,0.249,0.158,0.394C121.996,47.277,121.935,47.42,121.819,47.52L121.819,47.52L121.819,47.52z M120.346,44.494
			h-0.65v3.752h1.641c0.424,0,0.751-0.105,0.969-0.318c0.227-0.212,0.342-0.492,0.342-0.839c0-0.158-0.031-0.31-0.083-0.454
			c-0.056-0.136-0.136-0.258-0.25-0.354c-0.106-0.1-0.242-0.183-0.408-0.242c-0.165-0.054-0.347-0.085-0.569-0.085h-0.99V44.494z"/>
		<polygon fill-rule="evenodd" clip-rule="evenodd" fill="#3D3D3C" points="127.262,48.246 125.997,46.311 127.209,44.494 
			126.438,44.494 125.643,45.802 124.863,44.494 124.082,44.494 125.28,46.325 124.009,48.246 124.773,48.246 125.637,46.839 
			126.474,48.246 		"/>
		<polygon fill-rule="evenodd" clip-rule="evenodd" fill="#3D3D3C" points="130.146,47.202 130.146,44.502 129.496,44.502 
			129.496,48.246 130.092,48.246 131.332,46.408 131.898,45.538 131.938,45.538 131.938,48.246 132.602,48.246 132.602,44.502 
			131.99,44.502 130.734,46.346 130.175,47.202 		"/>
		<path fill-rule="evenodd" clip-rule="evenodd" fill="#3D3D3C" d="M133.08,47.807c0.205,0.175,0.423,0.296,0.666,0.363
			c0.236,0.068,0.477,0.105,0.718,0.105c0.243,0,0.455-0.029,0.637-0.09c0.182-0.054,0.333-0.137,0.455-0.242
			c0.12-0.098,0.21-0.222,0.271-0.363c0.062-0.136,0.092-0.285,0.092-0.454c0-0.053-0.006-0.119-0.023-0.195
			c-0.015-0.077-0.045-0.151-0.084-0.235c-0.045-0.083-0.105-0.158-0.182-0.227c-0.073-0.07-0.172-0.129-0.287-0.174
			c0.115-0.046,0.214-0.106,0.281-0.173c0.066-0.07,0.122-0.138,0.158-0.214c0.039-0.074,0.062-0.151,0.068-0.226
			c0.008-0.069,0.014-0.137,0.014-0.189c0-0.144-0.028-0.272-0.082-0.401c-0.053-0.121-0.135-0.228-0.242-0.325
			c-0.112-0.098-0.25-0.175-0.408-0.228c-0.167-0.053-0.355-0.084-0.575-0.084c-0.232,0-0.477,0.039-0.712,0.106
			c-0.232,0.075-0.445,0.189-0.621,0.364l0.402,0.447c0.129-0.113,0.279-0.198,0.439-0.245c0.158-0.036,0.31-0.059,0.453-0.059
			c0.189,0,0.355,0.037,0.499,0.114c0.144,0.083,0.22,0.203,0.22,0.37c0,0.143-0.053,0.264-0.166,0.362
			c-0.115,0.099-0.264,0.145-0.468,0.145h-0.531v0.535h0.515c0.203,0,0.369,0.046,0.506,0.139c0.129,0.09,0.197,0.225,0.197,0.401
			c0,0.066-0.016,0.134-0.045,0.203c-0.03,0.068-0.076,0.128-0.144,0.181c-0.067,0.054-0.159,0.099-0.265,0.128
			c-0.113,0.04-0.25,0.054-0.408,0.054c-0.145,0-0.312-0.029-0.486-0.083c-0.18-0.054-0.338-0.143-0.467-0.259L133.08,47.807z"/>
		<path fill-rule="evenodd" clip-rule="evenodd" fill="#3D3D3C" d="M139.27,45.078v2.602h-1.861
			c0.113-0.175,0.189-0.385,0.234-0.644c0.039-0.25,0.068-0.577,0.09-0.969l0.049-0.989H139.27L139.27,45.078z M136.297,47.701
			v1.506h0.612v-0.961h2.709v0.961h0.612v-1.52l-0.311-0.008v-3.178h-2.709l-0.09,1.589c-0.016,0.243-0.039,0.446-0.06,0.619
			c-0.024,0.174-0.062,0.326-0.107,0.446c-0.045,0.13-0.101,0.229-0.166,0.311c-0.067,0.084-0.146,0.159-0.235,0.221L136.297,47.701
			z"/>
		<path fill-rule="evenodd" clip-rule="evenodd" fill="#3D3D3C" d="M143.877,46.612v-0.741c0-0.22-0.037-0.416-0.105-0.59
			c-0.076-0.175-0.181-0.318-0.311-0.44c-0.136-0.119-0.295-0.21-0.484-0.279c-0.181-0.067-0.386-0.099-0.604-0.099
			c-0.229,0-0.434,0.031-0.613,0.099c-0.182,0.069-0.342,0.166-0.477,0.295c-0.129,0.132-0.234,0.28-0.312,0.463
			c-0.075,0.181-0.113,0.385-0.113,0.604v0.991c0,0.227,0.046,0.424,0.128,0.598c0.084,0.175,0.199,0.311,0.34,0.424
			c0.146,0.112,0.311,0.204,0.502,0.255c0.189,0.063,0.393,0.092,0.605,0.092c0.234,0,0.476-0.037,0.711-0.113
			c0.234-0.067,0.446-0.204,0.636-0.401l-0.41-0.444c-0.158,0.143-0.318,0.24-0.483,0.294c-0.166,0.054-0.311,0.075-0.441,0.075
			c-0.119,0-0.232-0.014-0.344-0.046c-0.117-0.029-0.222-0.083-0.305-0.149c-0.092-0.068-0.16-0.152-0.211-0.259
			c-0.055-0.098-0.076-0.227-0.076-0.378v-0.249H143.877L143.877,46.612z M143.228,46.084h-1.71v-0.168
			c0-0.144,0.022-0.272,0.068-0.387c0.046-0.104,0.105-0.195,0.188-0.263c0.085-0.069,0.175-0.122,0.271-0.16
			c0.101-0.037,0.214-0.054,0.329-0.054c0.113,0,0.227,0.017,0.332,0.045c0.098,0.039,0.188,0.094,0.271,0.162
			c0.075,0.074,0.137,0.166,0.182,0.278c0.047,0.113,0.069,0.241,0.069,0.4V46.084z"/>
		<path fill-rule="evenodd" clip-rule="evenodd" fill="#3D3D3C" d="M146.965,45.078v3.168h0.651v-3.744h-2.602v1.55
			c0,0.325-0.017,0.59-0.048,0.796c-0.037,0.201-0.082,0.362-0.15,0.482c-0.068,0.129-0.158,0.227-0.265,0.296
			c-0.107,0.067-0.228,0.135-0.372,0.204l0.265,0.522c0.173-0.069,0.342-0.161,0.493-0.26c0.143-0.098,0.271-0.233,0.376-0.399
			c0.116-0.165,0.198-0.377,0.259-0.636c0.06-0.256,0.092-0.583,0.092-0.967v-1.013H146.965z"/>
		<polygon fill-rule="evenodd" clip-rule="evenodd" fill="#3D3D3C" points="149.098,47.202 149.098,44.502 148.449,44.502 
			148.449,48.246 149.045,48.246 150.285,46.408 150.854,45.538 150.891,45.538 150.891,48.246 151.559,48.246 151.559,44.502 
			150.944,44.502 149.689,46.346 149.129,47.202 		"/>
		<path fill-rule="evenodd" clip-rule="evenodd" fill="#3D3D3C" d="M152.792,42.974c0,0.1,0.021,0.202,0.06,0.317
			c0.037,0.113,0.101,0.22,0.182,0.317c0.084,0.099,0.189,0.175,0.333,0.242c0.138,0.069,0.312,0.099,0.515,0.099
			s0.38-0.029,0.514-0.099c0.129-0.067,0.242-0.144,0.326-0.242c0.084-0.098,0.136-0.204,0.174-0.317
			c0.037-0.115,0.061-0.218,0.069-0.317h-0.536c0,0.054-0.008,0.106-0.033,0.157c-0.022,0.055-0.061,0.107-0.105,0.153
			c-0.045,0.052-0.099,0.091-0.166,0.12c-0.067,0.031-0.152,0.047-0.242,0.047c-0.082,0-0.151-0.016-0.221-0.047
			c-0.066-0.029-0.119-0.068-0.164-0.12c-0.047-0.046-0.085-0.099-0.107-0.153c-0.022-0.051-0.037-0.104-0.045-0.157H152.792
			L152.792,42.974z M152.965,47.202v-2.7h-0.65v3.744h0.598l1.24-1.838l0.568-0.87h0.038v2.708h0.665v-3.744h-0.611l-1.259,1.844
			l-0.56,0.856H152.965z"/>
	</g>
</g>
</svg>
